<svg height="512" viewBox="0 0 64 64" width="512" xmlns="http://www.w3.org/2000/svg" xmlns:xlink="http://www.w3.org/1999/xlink"><linearGradient id="linear-gradient" gradientUnits="userSpaceOnUse" x1="1" x2="63.801" y1="40.5" y2="40.5"><stop offset="0" stop-color="#2dced9"/><stop offset=".155" stop-color="#45cdc4"/><stop offset=".484" stop-color="#83ca8d"/><stop offset=".956" stop-color="#e5c636"/><stop offset="1" stop-color="#efc62d"/></linearGradient><linearGradient id="linear-gradient-2" x2="63.801" xlink:href="#linear-gradient" y1="18" y2="18"/><linearGradient id="linear-gradient-5" x2="63.801" xlink:href="#linear-gradient" y1="11" y2="11"/><linearGradient id="linear-gradient-6" x2="63.801" xlink:href="#linear-gradient" y1="25" y2="25"/><g id="Gradient_outline" data-name="Gradient outline"><path d="m61 38h-5.879l-3.551-.889-3.633-4.54c-.759-4.05-1.872-10.067-1.944-10.686-.229-1.955-1.269-2.926-3.016-2.884a1.007 1.007 0 0 0 -.267.043l-1.981.6c-2.729.811-2.729 3.184-2.729 4.356v12h-14a3.99 3.99 0 0 0 -1.313 7.761 3.981 3.981 0 0 0 2 6 3.981 3.981 0 0 0 2 6 4 4 0 0 0 3.313 6.239h19a1 1 0 0 0 .707-.293l5.707-5.707h5.586a1 1 0 0 0 1-1v-16a1 1 0 0 0 -1-1zm-25 22h-6a2 2 0 0 1 0-4h6a2 2 0 0 1 0 4zm0-6h-8a2 2 0 0 1 0-4h8a2 2 0 0 1 0 4zm0-6h-10a2 2 0 0 1 0-4h10a2 2 0 0 1 0 4zm0-6h-12a2 2 0 0 1 0-4h12a2 2 0 0 1 0 4zm18 12.586-5.414 5.414h-9.142a3.92 3.92 0 0 0 -.826-5 3.947 3.947 0 0 0 0-6 3.947 3.947 0 0 0 0-6 3.984 3.984 0 0 0 .99-1.3c1.331 2.91 3.622 5.3 7.392 5.3v-2c-6.9 0-7-10.89-7-11v-10.032c0-1.257.087-2.046 1.3-2.407l1.855-.561c.5 0 .734.112.852 1.118.105.9 1.815 10.03 2.011 11.069a1 1 0 0 0 .2.44l4 5a1 1 0 0 0 .539.345l3.243.809zm6-.586h-4v-14h4z" fill="url(#linear-gradient)"/><g fill="url(#linear-gradient-2)"><path d="m36 2h-34v32h34zm-2 30h-30v-28h30z"/><path d="m32 6h-26v24h26zm-2 22h-22v-20h22z"/><path d="m15 26h9v-2h-8v-3.382l7.447-3.718a1 1 0 0 0 .553-.9v-5a1 1 0 0 0 -1-1h-8a1 1 0 0 0 -1 1v5h2v-4h6v3.382l-7.447 3.723a1 1 0 0 0 -.553.895v5a1 1 0 0 0 1 1z"/></g><path d="m10 10h2v2h-2z" fill="url(#linear-gradient-5)"/><path d="m26 24h2v2h-2z" fill="url(#linear-gradient-6)"/></g></svg>